<svg xmlns="http://www.w3.org/2000/svg" xmlns:v="https://vecta.io/nano" viewBox="126.32 87.43 228.58 209.9"><path d="M201.39 272.26l-9.46-16.38-8.14-14.1-6.11-10.57-14.47 25.07 6.1 10.57 8.15 14.1 9.45 16.38h121.18l14.47-25.07h-28.94-92.23zm-46.12-79.87l46.12-79.87h92.23l6.15 10.64c1.23 2.14 2.2 4.16 2.94 6.38l.37-.64 8.14 14.1h0l6.1 10.57 14.47-25.07-6.1-10.57h0l-8.14-14.09h0l-1.3-2.27s0-.01-.01-.02h0l-8.14-14.09H186.91l-60.58 104.93 28.74 49.78 14.47-25.07-14.27-24.72zm185.14-50.6l-14.47 25.07h0 0l14.47 25.06 14.47-25.07-14.47-25.06z"></path><path d="M169.31 266.85h0l.23.39h-12.66l-8.14 14.11h28.72v-.4l-8.15-14.1zm53.07-63.71a19.01 19.01 0 0 0 0-19.02l-2.65-4.59-35.95 62.25 8.14 14.1 30.45-52.74zm50.25-21.51c-3.4 5.89-3.4 13.15 0 19.04l.39.67 2.26 3.91 35.93-62.24-8.14-14.1-.37.64-16.66 28.85-13.42 23.23zm44.92-77.79l8.14 14.1v-.01h0l-.22-.39h12.65l8.15-14.1h-28.72v.39.01h0z" fill="#805d08"></path><path d="M163.21 256.28h0 0l14.47-25.07 42.05-72.82 55.54 96.21 6.98-12.08 57.69-99.91 14.47-25.07h0l-8.14-14.1h0l-8.15 14.1-6.32 10.97h-.01l-56.51 97.89h-.01l-55.54-96.22-50.19 86.93-14.47 25.07h0 0l-14.48 25.06v.01l8.15 14.1h0l8.14-14.11 6.33-10.96z" fill="#bb890b"></path></svg>